<mxfile host="65bd71144e" pages="3">
    <diagram name="v4" id="eiwItLneLRu5_oW2zSF9">
        <mxGraphModel dx="1186" dy="430" grid="1" gridSize="10" guides="1" tooltips="1" connect="1" arrows="1" fold="1" page="1" pageScale="1" pageWidth="827" pageHeight="1169" math="0" shadow="0">
            <root>
                <mxCell id="ru272QTmkn4qlavUQfqg-0"/>
                <mxCell id="ru272QTmkn4qlavUQfqg-1" parent="ru272QTmkn4qlavUQfqg-0"/>
                <mxCell id="ru272QTmkn4qlavUQfqg-2" value="Person" style="swimlane;fontStyle=1;align=center;verticalAlign=top;childLayout=stackLayout;horizontal=1;startSize=26;horizontalStack=0;resizeParent=1;resizeParentMax=0;resizeLast=0;collapsible=1;marginBottom=0;" vertex="1" parent="ru272QTmkn4qlavUQfqg-1">
                    <mxGeometry x="350" y="190" width="190" height="120" as="geometry"/>
                </mxCell>
                <mxCell id="ru272QTmkn4qlavUQfqg-3" value="+ remote: Controller&#10;+ television: Device" style="text;strokeColor=none;fillColor=none;align=left;verticalAlign=top;spacingLeft=4;spacingRight=4;overflow=hidden;rotatable=0;points=[[0,0.5],[1,0.5]];portConstraint=eastwest;" vertex="1" parent="ru272QTmkn4qlavUQfqg-2">
                    <mxGeometry y="26" width="190" height="44" as="geometry"/>
                </mxCell>
                <mxCell id="ru272QTmkn4qlavUQfqg-4" value="" style="line;strokeWidth=1;fillColor=none;align=left;verticalAlign=middle;spacingTop=-1;spacingLeft=3;spacingRight=3;rotatable=0;labelPosition=right;points=[];portConstraint=eastwest;" vertex="1" parent="ru272QTmkn4qlavUQfqg-2">
                    <mxGeometry y="70" width="190" height="8" as="geometry"/>
                </mxCell>
                <mxCell id="ru272QTmkn4qlavUQfqg-5" value="- plugPower(): void&#10;- pressButton(Command): void&#10;" style="text;strokeColor=none;fillColor=none;align=left;verticalAlign=top;spacingLeft=4;spacingRight=4;overflow=hidden;rotatable=0;points=[[0,0.5],[1,0.5]];portConstraint=eastwest;" vertex="1" parent="ru272QTmkn4qlavUQfqg-2">
                    <mxGeometry y="78" width="190" height="42" as="geometry"/>
                </mxCell>
                <mxCell id="ru272QTmkn4qlavUQfqg-6" value="Controller" style="swimlane;fontStyle=1;align=center;verticalAlign=top;childLayout=stackLayout;horizontal=1;startSize=26;horizontalStack=0;resizeParent=1;resizeParentMax=0;resizeLast=0;collapsible=1;marginBottom=0;" vertex="1" parent="ru272QTmkn4qlavUQfqg-1">
                    <mxGeometry x="110" y="330" width="210" height="120" as="geometry"/>
                </mxCell>
                <mxCell id="ru272QTmkn4qlavUQfqg-7" value="+ type: Command&#10;+ command: ICommand" style="text;strokeColor=none;fillColor=none;align=left;verticalAlign=top;spacingLeft=4;spacingRight=4;overflow=hidden;rotatable=0;points=[[0,0.5],[1,0.5]];portConstraint=eastwest;" vertex="1" parent="ru272QTmkn4qlavUQfqg-6">
                    <mxGeometry y="26" width="210" height="34" as="geometry"/>
                </mxCell>
                <mxCell id="ru272QTmkn4qlavUQfqg-8" value="" style="line;strokeWidth=1;fillColor=none;align=left;verticalAlign=middle;spacingTop=-1;spacingLeft=3;spacingRight=3;rotatable=0;labelPosition=right;points=[];portConstraint=eastwest;" vertex="1" parent="ru272QTmkn4qlavUQfqg-6">
                    <mxGeometry y="60" width="210" height="8" as="geometry"/>
                </mxCell>
                <mxCell id="ru272QTmkn4qlavUQfqg-9" value="- identify(Command): void&#10;- publishSgl(Device): Device&#10;- obtainCtrl(): ICommand" style="text;strokeColor=none;fillColor=none;align=left;verticalAlign=top;spacingLeft=4;spacingRight=4;overflow=hidden;rotatable=0;points=[[0,0.5],[1,0.5]];portConstraint=eastwest;" vertex="1" parent="ru272QTmkn4qlavUQfqg-6">
                    <mxGeometry y="68" width="210" height="52" as="geometry"/>
                </mxCell>
                <mxCell id="ru272QTmkn4qlavUQfqg-10" value="&lt;p style=&quot;margin: 0px ; margin-top: 4px ; text-align: center&quot;&gt;&amp;lt;&amp;lt;enumeration&amp;gt;&amp;gt;&lt;br&gt;&lt;b&gt;Command&lt;/b&gt;&lt;/p&gt;&lt;hr&gt;&lt;p style=&quot;margin: 0px ; margin-left: 8px ; text-align: left&quot;&gt;ON&lt;/p&gt;&lt;p style=&quot;margin: 0px ; margin-left: 8px ; text-align: left&quot;&gt;INCREASE_VOLUME&lt;/p&gt;&lt;p style=&quot;margin: 0px ; margin-left: 8px ; text-align: left&quot;&gt;DECREASE_VOLUME&lt;/p&gt;&lt;p style=&quot;margin: 0px ; margin-left: 8px ; text-align: left&quot;&gt;INCREMENT_CHANNEL&lt;/p&gt;&lt;p style=&quot;margin: 0px ; margin-left: 8px ; text-align: left&quot;&gt;DECREMENT_CHANNEL&lt;/p&gt;&lt;p style=&quot;margin: 0px ; margin-left: 8px ; text-align: left&quot;&gt;ADD_FAVOURITE&lt;/p&gt;&lt;p style=&quot;margin: 0px ; margin-left: 8px ; text-align: left&quot;&gt;SAVE_PLAYLIST&lt;br&gt;OFF&lt;/p&gt;" style="shape=rect;html=1;overflow=fill;whiteSpace=wrap;" vertex="1" parent="ru272QTmkn4qlavUQfqg-1">
                    <mxGeometry x="110" y="120" width="180" height="160" as="geometry"/>
                </mxCell>
                <mxCell id="ru272QTmkn4qlavUQfqg-11" value="CommandFactory" style="swimlane;fontStyle=1;align=center;verticalAlign=top;childLayout=stackLayout;horizontal=1;startSize=26;horizontalStack=0;resizeParent=1;resizeParentMax=0;resizeLast=0;collapsible=1;marginBottom=0;" vertex="1" parent="ru272QTmkn4qlavUQfqg-1">
                    <mxGeometry x="110" y="490" width="190" height="68" as="geometry"/>
                </mxCell>
                <mxCell id="ru272QTmkn4qlavUQfqg-12" value="- getImpl(Command): ICommand" style="text;strokeColor=none;fillColor=none;align=left;verticalAlign=top;spacingLeft=4;spacingRight=4;overflow=hidden;rotatable=0;points=[[0,0.5],[1,0.5]];portConstraint=eastwest;" vertex="1" parent="ru272QTmkn4qlavUQfqg-11">
                    <mxGeometry y="26" width="190" height="42" as="geometry"/>
                </mxCell>
                <mxCell id="ru272QTmkn4qlavUQfqg-13" value="&lt;p style=&quot;margin: 0px ; margin-top: 4px ; text-align: center&quot;&gt;&amp;lt;&amp;lt;interface&amp;gt;&amp;gt;&lt;br&gt;&lt;b&gt;ICommand&lt;/b&gt;&lt;/p&gt;&lt;hr&gt;&lt;p style=&quot;margin: 0px ; margin-left: 8px ; text-align: left&quot;&gt;&lt;/p&gt;&lt;p style=&quot;margin: 0px ; margin-left: 8px ; text-align: left&quot;&gt;&lt;span&gt;- execute(Command, Device): Device&lt;/span&gt;&lt;br&gt;&lt;/p&gt;" style="shape=rect;html=1;overflow=fill;whiteSpace=wrap;" vertex="1" parent="ru272QTmkn4qlavUQfqg-1">
                    <mxGeometry x="390" y="490" width="270" height="70" as="geometry"/>
                </mxCell>
                <mxCell id="ru272QTmkn4qlavUQfqg-14" value="PowerImpl" style="swimlane;fontStyle=1;align=center;verticalAlign=top;childLayout=stackLayout;horizontal=1;startSize=26;horizontalStack=0;resizeParent=1;resizeParentMax=0;resizeLast=0;collapsible=1;marginBottom=0;" vertex="1" parent="ru272QTmkn4qlavUQfqg-1">
                    <mxGeometry x="270" y="610" width="230" height="50" as="geometry">
                        <mxRectangle x="200" y="660" width="90" height="26" as="alternateBounds"/>
                    </mxGeometry>
                </mxCell>
                <mxCell id="ru272QTmkn4qlavUQfqg-15" value="- execute(Command, Device): Device&#10;" style="text;strokeColor=none;fillColor=none;align=left;verticalAlign=top;spacingLeft=4;spacingRight=4;overflow=hidden;rotatable=0;points=[[0,0.5],[1,0.5]];portConstraint=eastwest;" vertex="1" parent="ru272QTmkn4qlavUQfqg-14">
                    <mxGeometry y="26" width="230" height="24" as="geometry"/>
                </mxCell>
                <mxCell id="ru272QTmkn4qlavUQfqg-16" value="VolumeImpl" style="swimlane;fontStyle=1;align=center;verticalAlign=top;childLayout=stackLayout;horizontal=1;startSize=26;horizontalStack=0;resizeParent=1;resizeParentMax=0;resizeLast=0;collapsible=1;marginBottom=0;" vertex="1" parent="ru272QTmkn4qlavUQfqg-1">
                    <mxGeometry x="570" y="610" width="220" height="50" as="geometry"/>
                </mxCell>
                <mxCell id="ru272QTmkn4qlavUQfqg-17" value="- execute(Command, Device): Device&#10;" style="text;strokeColor=none;fillColor=none;align=left;verticalAlign=top;spacingLeft=4;spacingRight=4;overflow=hidden;rotatable=0;points=[[0,0.5],[1,0.5]];portConstraint=eastwest;" vertex="1" parent="ru272QTmkn4qlavUQfqg-16">
                    <mxGeometry y="26" width="220" height="24" as="geometry"/>
                </mxCell>
                <mxCell id="ru272QTmkn4qlavUQfqg-18" value="PlayListImpl" style="swimlane;fontStyle=1;align=center;verticalAlign=top;childLayout=stackLayout;horizontal=1;startSize=26;horizontalStack=0;resizeParent=1;resizeParentMax=0;resizeLast=0;collapsible=1;marginBottom=0;" vertex="1" parent="ru272QTmkn4qlavUQfqg-1">
                    <mxGeometry x="570" y="700" width="220" height="50" as="geometry"/>
                </mxCell>
                <mxCell id="ru272QTmkn4qlavUQfqg-19" value="- execute(Command, Device): Device&#10;" style="text;strokeColor=none;fillColor=none;align=left;verticalAlign=top;spacingLeft=4;spacingRight=4;overflow=hidden;rotatable=0;points=[[0,0.5],[1,0.5]];portConstraint=eastwest;" vertex="1" parent="ru272QTmkn4qlavUQfqg-18">
                    <mxGeometry y="26" width="220" height="24" as="geometry"/>
                </mxCell>
                <mxCell id="ru272QTmkn4qlavUQfqg-20" value="ChannelImpl" style="swimlane;fontStyle=1;align=center;verticalAlign=top;childLayout=stackLayout;horizontal=1;startSize=26;horizontalStack=0;resizeParent=1;resizeParentMax=0;resizeLast=0;collapsible=1;marginBottom=0;" vertex="1" parent="ru272QTmkn4qlavUQfqg-1">
                    <mxGeometry x="270" y="700" width="240" height="50" as="geometry"/>
                </mxCell>
                <mxCell id="ru272QTmkn4qlavUQfqg-21" value="- execute(Command, Device): Device&#10;" style="text;strokeColor=none;fillColor=none;align=left;verticalAlign=top;spacingLeft=4;spacingRight=4;overflow=hidden;rotatable=0;points=[[0,0.5],[1,0.5]];portConstraint=eastwest;" vertex="1" parent="ru272QTmkn4qlavUQfqg-20">
                    <mxGeometry y="26" width="240" height="24" as="geometry"/>
                </mxCell>
                <mxCell id="ru272QTmkn4qlavUQfqg-22" value="Device" style="swimlane;fontStyle=1;align=center;verticalAlign=top;childLayout=stackLayout;horizontal=1;startSize=26;horizontalStack=0;resizeParent=1;resizeParentMax=0;resizeLast=0;collapsible=1;marginBottom=0;" vertex="1" parent="ru272QTmkn4qlavUQfqg-1">
                    <mxGeometry x="600" y="190" width="190" height="280" as="geometry"/>
                </mxCell>
                <mxCell id="ru272QTmkn4qlavUQfqg-23" value="+ status: int&#10;+ volumeLevel: int&#10;+ currentChannel: int&#10;+ favourites: Set&#10;&#10;//+ command: ICommand" style="text;strokeColor=none;fillColor=none;align=left;verticalAlign=top;spacingLeft=4;spacingRight=4;overflow=hidden;rotatable=0;points=[[0,0.5],[1,0.5]];portConstraint=eastwest;" vertex="1" parent="ru272QTmkn4qlavUQfqg-22">
                    <mxGeometry y="26" width="190" height="94" as="geometry"/>
                </mxCell>
                <mxCell id="ru272QTmkn4qlavUQfqg-24" value="" style="line;strokeWidth=1;fillColor=none;align=left;verticalAlign=middle;spacingTop=-1;spacingLeft=3;spacingRight=3;rotatable=0;labelPosition=right;points=[];portConstraint=eastwest;" vertex="1" parent="ru272QTmkn4qlavUQfqg-22">
                    <mxGeometry y="120" width="190" height="8" as="geometry"/>
                </mxCell>
                <mxCell id="ru272QTmkn4qlavUQfqg-25" value="//+ consume(ICommand): void&#10;//+ performOperation(): void&#10;- powerOn(Device): void&#10;- powerOff(Device): void&#10;- incVolume(Device): void&#10;- decVolume(Device): void&#10;- incChannel(Device): void&#10;- decChannel(Device): void &#10;- addFavourite(Device): void&#10;- removeFavourite(Device): void" style="text;strokeColor=none;fillColor=none;align=left;verticalAlign=top;spacingLeft=4;spacingRight=4;overflow=hidden;rotatable=0;points=[[0,0.5],[1,0.5]];portConstraint=eastwest;" vertex="1" parent="ru272QTmkn4qlavUQfqg-22">
                    <mxGeometry y="128" width="190" height="152" as="geometry"/>
                </mxCell>
            </root>
        </mxGraphModel>
    </diagram>
    <diagram name="obsolete-v3" id="lNLTmhuMAhpKl-hPJvGp">
        <mxGraphModel dx="1186" dy="430" grid="1" gridSize="10" guides="1" tooltips="1" connect="1" arrows="1" fold="1" page="1" pageScale="1" pageWidth="827" pageHeight="1169" math="0" shadow="0">
            <root>
                <mxCell id="0Zv1SSNFyU1vnvJWHNot-0"/>
                <mxCell id="0Zv1SSNFyU1vnvJWHNot-1" parent="0Zv1SSNFyU1vnvJWHNot-0"/>
                <mxCell id="0Zv1SSNFyU1vnvJWHNot-2" value="Person" style="swimlane;fontStyle=1;align=center;verticalAlign=top;childLayout=stackLayout;horizontal=1;startSize=26;horizontalStack=0;resizeParent=1;resizeParentMax=0;resizeLast=0;collapsible=1;marginBottom=0;" parent="0Zv1SSNFyU1vnvJWHNot-1" vertex="1">
                    <mxGeometry x="370" y="210" width="190" height="120" as="geometry"/>
                </mxCell>
                <mxCell id="0Zv1SSNFyU1vnvJWHNot-3" value="+ remote: Controller&#10;+ television: Device" style="text;strokeColor=none;fillColor=none;align=left;verticalAlign=top;spacingLeft=4;spacingRight=4;overflow=hidden;rotatable=0;points=[[0,0.5],[1,0.5]];portConstraint=eastwest;" parent="0Zv1SSNFyU1vnvJWHNot-2" vertex="1">
                    <mxGeometry y="26" width="190" height="44" as="geometry"/>
                </mxCell>
                <mxCell id="0Zv1SSNFyU1vnvJWHNot-4" value="" style="line;strokeWidth=1;fillColor=none;align=left;verticalAlign=middle;spacingTop=-1;spacingLeft=3;spacingRight=3;rotatable=0;labelPosition=right;points=[];portConstraint=eastwest;" parent="0Zv1SSNFyU1vnvJWHNot-2" vertex="1">
                    <mxGeometry y="70" width="190" height="8" as="geometry"/>
                </mxCell>
                <mxCell id="0Zv1SSNFyU1vnvJWHNot-5" value="+ plugPower(): void&#10;+ pressButton(Command): void&#10;" style="text;strokeColor=none;fillColor=none;align=left;verticalAlign=top;spacingLeft=4;spacingRight=4;overflow=hidden;rotatable=0;points=[[0,0.5],[1,0.5]];portConstraint=eastwest;" parent="0Zv1SSNFyU1vnvJWHNot-2" vertex="1">
                    <mxGeometry y="78" width="190" height="42" as="geometry"/>
                </mxCell>
                <mxCell id="0Zv1SSNFyU1vnvJWHNot-10" value="Controller" style="swimlane;fontStyle=1;align=center;verticalAlign=top;childLayout=stackLayout;horizontal=1;startSize=26;horizontalStack=0;resizeParent=1;resizeParentMax=0;resizeLast=0;collapsible=1;marginBottom=0;" parent="0Zv1SSNFyU1vnvJWHNot-1" vertex="1">
                    <mxGeometry x="210" y="535" width="210" height="100" as="geometry"/>
                </mxCell>
                <mxCell id="0Zv1SSNFyU1vnvJWHNot-11" value="+ command: ICommand" style="text;strokeColor=none;fillColor=none;align=left;verticalAlign=top;spacingLeft=4;spacingRight=4;overflow=hidden;rotatable=0;points=[[0,0.5],[1,0.5]];portConstraint=eastwest;" parent="0Zv1SSNFyU1vnvJWHNot-10" vertex="1">
                    <mxGeometry y="26" width="210" height="24" as="geometry"/>
                </mxCell>
                <mxCell id="0Zv1SSNFyU1vnvJWHNot-12" value="" style="line;strokeWidth=1;fillColor=none;align=left;verticalAlign=middle;spacingTop=-1;spacingLeft=3;spacingRight=3;rotatable=0;labelPosition=right;points=[];portConstraint=eastwest;" parent="0Zv1SSNFyU1vnvJWHNot-10" vertex="1">
                    <mxGeometry y="50" width="210" height="8" as="geometry"/>
                </mxCell>
                <mxCell id="0Zv1SSNFyU1vnvJWHNot-13" value="+ identify(Command): void&#10;+ publish(): ICommand" style="text;strokeColor=none;fillColor=none;align=left;verticalAlign=top;spacingLeft=4;spacingRight=4;overflow=hidden;rotatable=0;points=[[0,0.5],[1,0.5]];portConstraint=eastwest;" parent="0Zv1SSNFyU1vnvJWHNot-10" vertex="1">
                    <mxGeometry y="58" width="210" height="42" as="geometry"/>
                </mxCell>
                <mxCell id="0Zv1SSNFyU1vnvJWHNot-14" value="&lt;p style=&quot;margin: 0px ; margin-top: 4px ; text-align: center&quot;&gt;&amp;lt;&amp;lt;enumeration&amp;gt;&amp;gt;&lt;br&gt;&lt;b&gt;Command&lt;/b&gt;&lt;/p&gt;&lt;hr&gt;&lt;p style=&quot;margin: 0px ; margin-left: 8px ; text-align: left&quot;&gt;ON&lt;/p&gt;&lt;p style=&quot;margin: 0px ; margin-left: 8px ; text-align: left&quot;&gt;INCREASE_VOLUME&lt;/p&gt;&lt;p style=&quot;margin: 0px ; margin-left: 8px ; text-align: left&quot;&gt;DECREASE_VOLUME&lt;/p&gt;&lt;p style=&quot;margin: 0px ; margin-left: 8px ; text-align: left&quot;&gt;INCREMENT_CHANNEL&lt;/p&gt;&lt;p style=&quot;margin: 0px ; margin-left: 8px ; text-align: left&quot;&gt;DECREMENT_CHANNEL&lt;/p&gt;&lt;p style=&quot;margin: 0px ; margin-left: 8px ; text-align: left&quot;&gt;ADD_FAVOURITE&lt;/p&gt;&lt;p style=&quot;margin: 0px ; margin-left: 8px ; text-align: left&quot;&gt;SAVE_PLAYLIST&lt;br&gt;OFF&lt;/p&gt;" style="shape=rect;html=1;overflow=fill;whiteSpace=wrap;" parent="0Zv1SSNFyU1vnvJWHNot-1" vertex="1">
                    <mxGeometry x="210" y="360" width="180" height="160" as="geometry"/>
                </mxCell>
                <mxCell id="0Zv1SSNFyU1vnvJWHNot-15" value="CommandFactory" style="swimlane;fontStyle=1;align=center;verticalAlign=top;childLayout=stackLayout;horizontal=1;startSize=26;horizontalStack=0;resizeParent=1;resizeParentMax=0;resizeLast=0;collapsible=1;marginBottom=0;" parent="0Zv1SSNFyU1vnvJWHNot-1" vertex="1">
                    <mxGeometry x="450" y="360" width="190" height="68" as="geometry"/>
                </mxCell>
                <mxCell id="0Zv1SSNFyU1vnvJWHNot-17" value="+ getImpl(Command): ICommand" style="text;strokeColor=none;fillColor=none;align=left;verticalAlign=top;spacingLeft=4;spacingRight=4;overflow=hidden;rotatable=0;points=[[0,0.5],[1,0.5]];portConstraint=eastwest;" parent="0Zv1SSNFyU1vnvJWHNot-15" vertex="1">
                    <mxGeometry y="26" width="190" height="42" as="geometry"/>
                </mxCell>
                <mxCell id="0Zv1SSNFyU1vnvJWHNot-18" value="&lt;p style=&quot;margin: 0px ; margin-top: 4px ; text-align: center&quot;&gt;&amp;lt;&amp;lt;interface&amp;gt;&amp;gt;&lt;br&gt;&lt;b&gt;ICommand&lt;/b&gt;&lt;/p&gt;&lt;hr&gt;&lt;p style=&quot;margin: 0px ; margin-left: 8px ; text-align: left&quot;&gt;&lt;/p&gt;&lt;p style=&quot;margin: 0px ; margin-left: 8px ; text-align: left&quot;&gt;&lt;span&gt;+ execute(Command, Device): Device&lt;/span&gt;&lt;br&gt;&lt;/p&gt;" style="shape=rect;html=1;overflow=fill;whiteSpace=wrap;" parent="0Zv1SSNFyU1vnvJWHNot-1" vertex="1">
                    <mxGeometry x="310" y="680" width="270" height="70" as="geometry"/>
                </mxCell>
                <mxCell id="0Zv1SSNFyU1vnvJWHNot-19" value="PowerImpl" style="swimlane;fontStyle=1;align=center;verticalAlign=top;childLayout=stackLayout;horizontal=1;startSize=26;horizontalStack=0;resizeParent=1;resizeParentMax=0;resizeLast=0;collapsible=1;marginBottom=0;" parent="0Zv1SSNFyU1vnvJWHNot-1" vertex="1">
                    <mxGeometry x="180" y="820" width="230" height="80" as="geometry">
                        <mxRectangle x="200" y="660" width="90" height="26" as="alternateBounds"/>
                    </mxGeometry>
                </mxCell>
                <mxCell id="0Zv1SSNFyU1vnvJWHNot-20" value="+ execute(Command, Device): Device&#10;+ powerOn(Device): void&#10;+ powerOff(Device): void" style="text;strokeColor=none;fillColor=none;align=left;verticalAlign=top;spacingLeft=4;spacingRight=4;overflow=hidden;rotatable=0;points=[[0,0.5],[1,0.5]];portConstraint=eastwest;" parent="0Zv1SSNFyU1vnvJWHNot-19" vertex="1">
                    <mxGeometry y="26" width="230" height="54" as="geometry"/>
                </mxCell>
                <mxCell id="0Zv1SSNFyU1vnvJWHNot-21" value="VolumeImpl" style="swimlane;fontStyle=1;align=center;verticalAlign=top;childLayout=stackLayout;horizontal=1;startSize=26;horizontalStack=0;resizeParent=1;resizeParentMax=0;resizeLast=0;collapsible=1;marginBottom=0;" parent="0Zv1SSNFyU1vnvJWHNot-1" vertex="1">
                    <mxGeometry x="480" y="820" width="220" height="80" as="geometry"/>
                </mxCell>
                <mxCell id="0Zv1SSNFyU1vnvJWHNot-22" value="+ execute(Command, Device): Device&#10;+ incVolume(Device): void&#10;+ decVolume(Device): void" style="text;strokeColor=none;fillColor=none;align=left;verticalAlign=top;spacingLeft=4;spacingRight=4;overflow=hidden;rotatable=0;points=[[0,0.5],[1,0.5]];portConstraint=eastwest;" parent="0Zv1SSNFyU1vnvJWHNot-21" vertex="1">
                    <mxGeometry y="26" width="220" height="54" as="geometry"/>
                </mxCell>
                <mxCell id="0Zv1SSNFyU1vnvJWHNot-23" value="PlayListImpl" style="swimlane;fontStyle=1;align=center;verticalAlign=top;childLayout=stackLayout;horizontal=1;startSize=26;horizontalStack=0;resizeParent=1;resizeParentMax=0;resizeLast=0;collapsible=1;marginBottom=0;" parent="0Zv1SSNFyU1vnvJWHNot-1" vertex="1">
                    <mxGeometry x="480" y="960" width="220" height="80" as="geometry"/>
                </mxCell>
                <mxCell id="0Zv1SSNFyU1vnvJWHNot-24" value="+ execute(Command, Device): Device&#10;+ addFavourite(Device): void&#10;+ removeFavourite(Device): void" style="text;strokeColor=none;fillColor=none;align=left;verticalAlign=top;spacingLeft=4;spacingRight=4;overflow=hidden;rotatable=0;points=[[0,0.5],[1,0.5]];portConstraint=eastwest;" parent="0Zv1SSNFyU1vnvJWHNot-23" vertex="1">
                    <mxGeometry y="26" width="220" height="54" as="geometry"/>
                </mxCell>
                <mxCell id="0Zv1SSNFyU1vnvJWHNot-25" value="ChannelImpl" style="swimlane;fontStyle=1;align=center;verticalAlign=top;childLayout=stackLayout;horizontal=1;startSize=26;horizontalStack=0;resizeParent=1;resizeParentMax=0;resizeLast=0;collapsible=1;marginBottom=0;" parent="0Zv1SSNFyU1vnvJWHNot-1" vertex="1">
                    <mxGeometry x="180" y="960" width="240" height="80" as="geometry"/>
                </mxCell>
                <mxCell id="0Zv1SSNFyU1vnvJWHNot-26" value="+ execute(Command, Device): Device&#10;+ incChannel(Device): void&#10;+ decChannel(Device): void " style="text;strokeColor=none;fillColor=none;align=left;verticalAlign=top;spacingLeft=4;spacingRight=4;overflow=hidden;rotatable=0;points=[[0,0.5],[1,0.5]];portConstraint=eastwest;" parent="0Zv1SSNFyU1vnvJWHNot-25" vertex="1">
                    <mxGeometry y="26" width="240" height="54" as="geometry"/>
                </mxCell>
                <mxCell id="0Zv1SSNFyU1vnvJWHNot-27" value="Device" style="swimlane;fontStyle=1;align=center;verticalAlign=top;childLayout=stackLayout;horizontal=1;startSize=26;horizontalStack=0;resizeParent=1;resizeParentMax=0;resizeLast=0;collapsible=1;marginBottom=0;" parent="0Zv1SSNFyU1vnvJWHNot-1" vertex="1">
                    <mxGeometry x="450" y="460" width="190" height="170" as="geometry"/>
                </mxCell>
                <mxCell id="0Zv1SSNFyU1vnvJWHNot-28" value="+ status: int&#10;+ volumeLevel: int&#10;+ currentChannel: int&#10;+ favourites: Set&#10;&#10;+ command: ICommand" style="text;strokeColor=none;fillColor=none;align=left;verticalAlign=top;spacingLeft=4;spacingRight=4;overflow=hidden;rotatable=0;points=[[0,0.5],[1,0.5]];portConstraint=eastwest;" parent="0Zv1SSNFyU1vnvJWHNot-27" vertex="1">
                    <mxGeometry y="26" width="190" height="94" as="geometry"/>
                </mxCell>
                <mxCell id="0Zv1SSNFyU1vnvJWHNot-29" value="" style="line;strokeWidth=1;fillColor=none;align=left;verticalAlign=middle;spacingTop=-1;spacingLeft=3;spacingRight=3;rotatable=0;labelPosition=right;points=[];portConstraint=eastwest;" parent="0Zv1SSNFyU1vnvJWHNot-27" vertex="1">
                    <mxGeometry y="120" width="190" height="8" as="geometry"/>
                </mxCell>
                <mxCell id="0Zv1SSNFyU1vnvJWHNot-30" value="+ consume(ICommand): void&#10;+ performOperation(): void" style="text;strokeColor=none;fillColor=none;align=left;verticalAlign=top;spacingLeft=4;spacingRight=4;overflow=hidden;rotatable=0;points=[[0,0.5],[1,0.5]];portConstraint=eastwest;" parent="0Zv1SSNFyU1vnvJWHNot-27" vertex="1">
                    <mxGeometry y="128" width="190" height="42" as="geometry"/>
                </mxCell>
            </root>
        </mxGraphModel>
    </diagram>
    <diagram id="A9eaKsRQCWnnbOgGTVNM" name="obsolete-v2">
        <mxGraphModel dx="739" dy="384" grid="1" gridSize="10" guides="1" tooltips="1" connect="1" arrows="1" fold="1" page="1" pageScale="1" pageWidth="827" pageHeight="1169" math="0" shadow="0">
            <root>
                <mxCell id="9QAumryAbeTxKno_uVkA-0"/>
                <mxCell id="9QAumryAbeTxKno_uVkA-1" parent="9QAumryAbeTxKno_uVkA-0"/>
                <mxCell id="9QAumryAbeTxKno_uVkA-2" value="Person" style="swimlane;fontStyle=1;align=center;verticalAlign=top;childLayout=stackLayout;horizontal=1;startSize=26;horizontalStack=0;resizeParent=1;resizeParentMax=0;resizeLast=0;collapsible=1;marginBottom=0;" parent="9QAumryAbeTxKno_uVkA-1" vertex="1">
                    <mxGeometry x="230" y="40" width="190" height="120" as="geometry"/>
                </mxCell>
                <mxCell id="9QAumryAbeTxKno_uVkA-3" value="+ remote: Controller&#10;+ television: Device" style="text;strokeColor=none;fillColor=none;align=left;verticalAlign=top;spacingLeft=4;spacingRight=4;overflow=hidden;rotatable=0;points=[[0,0.5],[1,0.5]];portConstraint=eastwest;" parent="9QAumryAbeTxKno_uVkA-2" vertex="1">
                    <mxGeometry y="26" width="190" height="44" as="geometry"/>
                </mxCell>
                <mxCell id="9QAumryAbeTxKno_uVkA-4" value="" style="line;strokeWidth=1;fillColor=none;align=left;verticalAlign=middle;spacingTop=-1;spacingLeft=3;spacingRight=3;rotatable=0;labelPosition=right;points=[];portConstraint=eastwest;" parent="9QAumryAbeTxKno_uVkA-2" vertex="1">
                    <mxGeometry y="70" width="190" height="8" as="geometry"/>
                </mxCell>
                <mxCell id="9QAumryAbeTxKno_uVkA-5" value="+ plugPower(): void&#10;+ pressButton(Command): void&#10;" style="text;strokeColor=none;fillColor=none;align=left;verticalAlign=top;spacingLeft=4;spacingRight=4;overflow=hidden;rotatable=0;points=[[0,0.5],[1,0.5]];portConstraint=eastwest;" parent="9QAumryAbeTxKno_uVkA-2" vertex="1">
                    <mxGeometry y="78" width="190" height="42" as="geometry"/>
                </mxCell>
                <mxCell id="9QAumryAbeTxKno_uVkA-10" value="Controller" style="swimlane;fontStyle=1;align=center;verticalAlign=top;childLayout=stackLayout;horizontal=1;startSize=26;horizontalStack=0;resizeParent=1;resizeParentMax=0;resizeLast=0;collapsible=1;marginBottom=0;" parent="9QAumryAbeTxKno_uVkA-1" vertex="1">
                    <mxGeometry x="470" y="40" width="210" height="100" as="geometry"/>
                </mxCell>
                <mxCell id="9QAumryAbeTxKno_uVkA-11" value="+ command: ICommand" style="text;strokeColor=none;fillColor=none;align=left;verticalAlign=top;spacingLeft=4;spacingRight=4;overflow=hidden;rotatable=0;points=[[0,0.5],[1,0.5]];portConstraint=eastwest;" parent="9QAumryAbeTxKno_uVkA-10" vertex="1">
                    <mxGeometry y="26" width="210" height="24" as="geometry"/>
                </mxCell>
                <mxCell id="9QAumryAbeTxKno_uVkA-12" value="" style="line;strokeWidth=1;fillColor=none;align=left;verticalAlign=middle;spacingTop=-1;spacingLeft=3;spacingRight=3;rotatable=0;labelPosition=right;points=[];portConstraint=eastwest;" parent="9QAumryAbeTxKno_uVkA-10" vertex="1">
                    <mxGeometry y="50" width="210" height="8" as="geometry"/>
                </mxCell>
                <mxCell id="9QAumryAbeTxKno_uVkA-13" value="+ identify(Command): ICommand&#10;+ publish(): void" style="text;strokeColor=none;fillColor=none;align=left;verticalAlign=top;spacingLeft=4;spacingRight=4;overflow=hidden;rotatable=0;points=[[0,0.5],[1,0.5]];portConstraint=eastwest;" parent="9QAumryAbeTxKno_uVkA-10" vertex="1">
                    <mxGeometry y="58" width="210" height="42" as="geometry"/>
                </mxCell>
                <mxCell id="9QAumryAbeTxKno_uVkA-14" value="&lt;p style=&quot;margin: 0px ; margin-top: 4px ; text-align: center&quot;&gt;&amp;lt;&amp;lt;enumeration&amp;gt;&amp;gt;&lt;br&gt;&lt;b&gt;Command&lt;/b&gt;&lt;/p&gt;&lt;hr&gt;&lt;p style=&quot;margin: 0px ; margin-left: 8px ; text-align: left&quot;&gt;ON&lt;/p&gt;&lt;p style=&quot;margin: 0px ; margin-left: 8px ; text-align: left&quot;&gt;INCREASE_VOLUME&lt;/p&gt;&lt;p style=&quot;margin: 0px ; margin-left: 8px ; text-align: left&quot;&gt;DECREASE_VOLUME&lt;/p&gt;&lt;p style=&quot;margin: 0px ; margin-left: 8px ; text-align: left&quot;&gt;INCREMENT_CHANNEL&lt;/p&gt;&lt;p style=&quot;margin: 0px ; margin-left: 8px ; text-align: left&quot;&gt;DECREMENT_CHANNEL&lt;/p&gt;&lt;p style=&quot;margin: 0px ; margin-left: 8px ; text-align: left&quot;&gt;ADD_FAVOURITE&lt;/p&gt;&lt;p style=&quot;margin: 0px ; margin-left: 8px ; text-align: left&quot;&gt;SAVE_PLAYLIST&lt;br&gt;OFF&lt;/p&gt;" style="shape=rect;html=1;overflow=fill;whiteSpace=wrap;" parent="9QAumryAbeTxKno_uVkA-1" vertex="1">
                    <mxGeometry x="230" y="200" width="180" height="160" as="geometry"/>
                </mxCell>
                <mxCell id="9QAumryAbeTxKno_uVkA-15" value="CommandFactory" style="swimlane;fontStyle=1;align=center;verticalAlign=top;childLayout=stackLayout;horizontal=1;startSize=26;horizontalStack=0;resizeParent=1;resizeParentMax=0;resizeLast=0;collapsible=1;marginBottom=0;" parent="9QAumryAbeTxKno_uVkA-1" vertex="1">
                    <mxGeometry x="470" y="200" width="190" height="76" as="geometry"/>
                </mxCell>
                <mxCell id="9QAumryAbeTxKno_uVkA-16" value="" style="line;strokeWidth=1;fillColor=none;align=left;verticalAlign=middle;spacingTop=-1;spacingLeft=3;spacingRight=3;rotatable=0;labelPosition=right;points=[];portConstraint=eastwest;" parent="9QAumryAbeTxKno_uVkA-15" vertex="1">
                    <mxGeometry y="26" width="190" height="8" as="geometry"/>
                </mxCell>
                <mxCell id="9QAumryAbeTxKno_uVkA-17" value="+ getImpl(Command): ICommand" style="text;strokeColor=none;fillColor=none;align=left;verticalAlign=top;spacingLeft=4;spacingRight=4;overflow=hidden;rotatable=0;points=[[0,0.5],[1,0.5]];portConstraint=eastwest;" parent="9QAumryAbeTxKno_uVkA-15" vertex="1">
                    <mxGeometry y="34" width="190" height="42" as="geometry"/>
                </mxCell>
                <mxCell id="9QAumryAbeTxKno_uVkA-18" value="&lt;p style=&quot;margin: 0px ; margin-top: 4px ; text-align: center&quot;&gt;&amp;lt;&amp;lt;interface&amp;gt;&amp;gt;&lt;br&gt;&lt;b&gt;ICommand&lt;/b&gt;&lt;/p&gt;&lt;hr&gt;&lt;p style=&quot;margin: 0px ; margin-left: 8px ; text-align: left&quot;&gt;- type: Command&lt;/p&gt;&lt;hr&gt;&lt;p style=&quot;margin: 0px ; margin-left: 8px ; text-align: left&quot;&gt;&lt;span&gt;+ execute(Device): Device&lt;/span&gt;&lt;br&gt;&lt;/p&gt;" style="shape=rect;html=1;overflow=fill;whiteSpace=wrap;" parent="9QAumryAbeTxKno_uVkA-1" vertex="1">
                    <mxGeometry x="330" y="520" width="200" height="100" as="geometry"/>
                </mxCell>
                <mxCell id="9QAumryAbeTxKno_uVkA-19" value="PowerImpl" style="swimlane;fontStyle=1;align=center;verticalAlign=top;childLayout=stackLayout;horizontal=1;startSize=26;horizontalStack=0;resizeParent=1;resizeParentMax=0;resizeLast=0;collapsible=1;marginBottom=0;" parent="9QAumryAbeTxKno_uVkA-1" vertex="1">
                    <mxGeometry x="200" y="660" width="210" height="80" as="geometry">
                        <mxRectangle x="200" y="660" width="90" height="26" as="alternateBounds"/>
                    </mxGeometry>
                </mxCell>
                <mxCell id="9QAumryAbeTxKno_uVkA-21" value="+ execute(Device): Device&#10;+ powerOn(): int&#10;+ powerOff(): int" style="text;strokeColor=none;fillColor=none;align=left;verticalAlign=top;spacingLeft=4;spacingRight=4;overflow=hidden;rotatable=0;points=[[0,0.5],[1,0.5]];portConstraint=eastwest;" parent="9QAumryAbeTxKno_uVkA-19" vertex="1">
                    <mxGeometry y="26" width="210" height="54" as="geometry"/>
                </mxCell>
                <mxCell id="9QAumryAbeTxKno_uVkA-22" value="VolumeImpl" style="swimlane;fontStyle=1;align=center;verticalAlign=top;childLayout=stackLayout;horizontal=1;startSize=26;horizontalStack=0;resizeParent=1;resizeParentMax=0;resizeLast=0;collapsible=1;marginBottom=0;" parent="9QAumryAbeTxKno_uVkA-1" vertex="1">
                    <mxGeometry x="500" y="660" width="190" height="80" as="geometry"/>
                </mxCell>
                <mxCell id="9QAumryAbeTxKno_uVkA-24" value="+ execute(Device): Device&#10;+ incVolume(): int&#10;+ decVolume(): int" style="text;strokeColor=none;fillColor=none;align=left;verticalAlign=top;spacingLeft=4;spacingRight=4;overflow=hidden;rotatable=0;points=[[0,0.5],[1,0.5]];portConstraint=eastwest;" parent="9QAumryAbeTxKno_uVkA-22" vertex="1">
                    <mxGeometry y="26" width="190" height="54" as="geometry"/>
                </mxCell>
                <mxCell id="9QAumryAbeTxKno_uVkA-25" value="PlayListImpl" style="swimlane;fontStyle=1;align=center;verticalAlign=top;childLayout=stackLayout;horizontal=1;startSize=26;horizontalStack=0;resizeParent=1;resizeParentMax=0;resizeLast=0;collapsible=1;marginBottom=0;" parent="9QAumryAbeTxKno_uVkA-1" vertex="1">
                    <mxGeometry x="490" y="820" width="190" height="80" as="geometry"/>
                </mxCell>
                <mxCell id="9QAumryAbeTxKno_uVkA-27" value="+ execute(Device): Device&#10;+ addFavourite(int): List&#10;+ savePlayList(): List" style="text;strokeColor=none;fillColor=none;align=left;verticalAlign=top;spacingLeft=4;spacingRight=4;overflow=hidden;rotatable=0;points=[[0,0.5],[1,0.5]];portConstraint=eastwest;" parent="9QAumryAbeTxKno_uVkA-25" vertex="1">
                    <mxGeometry y="26" width="190" height="54" as="geometry"/>
                </mxCell>
                <mxCell id="9QAumryAbeTxKno_uVkA-28" value="ChannelImpl" style="swimlane;fontStyle=1;align=center;verticalAlign=top;childLayout=stackLayout;horizontal=1;startSize=26;horizontalStack=0;resizeParent=1;resizeParentMax=0;resizeLast=0;collapsible=1;marginBottom=0;" parent="9QAumryAbeTxKno_uVkA-1" vertex="1">
                    <mxGeometry x="215" y="800" width="210" height="80" as="geometry"/>
                </mxCell>
                <mxCell id="9QAumryAbeTxKno_uVkA-30" value="+ execute(Device): Device&#10;+ incChannel(): int&#10;+ decChannel(): int" style="text;strokeColor=none;fillColor=none;align=left;verticalAlign=top;spacingLeft=4;spacingRight=4;overflow=hidden;rotatable=0;points=[[0,0.5],[1,0.5]];portConstraint=eastwest;" parent="9QAumryAbeTxKno_uVkA-28" vertex="1">
                    <mxGeometry y="26" width="210" height="54" as="geometry"/>
                </mxCell>
                <mxCell id="9QAumryAbeTxKno_uVkA-31" value="Device" style="swimlane;fontStyle=1;align=center;verticalAlign=top;childLayout=stackLayout;horizontal=1;startSize=26;horizontalStack=0;resizeParent=1;resizeParentMax=0;resizeLast=0;collapsible=1;marginBottom=0;" parent="9QAumryAbeTxKno_uVkA-1" vertex="1">
                    <mxGeometry x="470" y="300" width="190" height="170" as="geometry"/>
                </mxCell>
                <mxCell id="9QAumryAbeTxKno_uVkA-32" value="+ status: int&#10;+ volumeLevel: int&#10;+ currentChannel: int&#10;+ favourites: List&#10;&#10;+ command: ICommand" style="text;strokeColor=none;fillColor=none;align=left;verticalAlign=top;spacingLeft=4;spacingRight=4;overflow=hidden;rotatable=0;points=[[0,0.5],[1,0.5]];portConstraint=eastwest;" parent="9QAumryAbeTxKno_uVkA-31" vertex="1">
                    <mxGeometry y="26" width="190" height="94" as="geometry"/>
                </mxCell>
                <mxCell id="9QAumryAbeTxKno_uVkA-33" value="" style="line;strokeWidth=1;fillColor=none;align=left;verticalAlign=middle;spacingTop=-1;spacingLeft=3;spacingRight=3;rotatable=0;labelPosition=right;points=[];portConstraint=eastwest;" parent="9QAumryAbeTxKno_uVkA-31" vertex="1">
                    <mxGeometry y="120" width="190" height="8" as="geometry"/>
                </mxCell>
                <mxCell id="9QAumryAbeTxKno_uVkA-34" value="+ consume(ICommand): void&#10;+ performOperation(): void" style="text;strokeColor=none;fillColor=none;align=left;verticalAlign=top;spacingLeft=4;spacingRight=4;overflow=hidden;rotatable=0;points=[[0,0.5],[1,0.5]];portConstraint=eastwest;" parent="9QAumryAbeTxKno_uVkA-31" vertex="1">
                    <mxGeometry y="128" width="190" height="42" as="geometry"/>
                </mxCell>
            </root>
        </mxGraphModel>
    </diagram>
    <diagram id="Me3uNAHzkeM5CmSPn8E-" name="obsolete-v1">
        <mxGraphModel dx="739" dy="384" grid="1" gridSize="10" guides="1" tooltips="1" connect="1" arrows="1" fold="1" page="1" pageScale="1" pageWidth="850" pageHeight="1100" math="0" shadow="0">
            <root>
                <mxCell id="0"/>
                <mxCell id="1" parent="0"/>
                <mxCell id="VUS6i2FInuebqIqwBOHY-6" value="Person" style="swimlane;fontStyle=1;align=center;verticalAlign=top;childLayout=stackLayout;horizontal=1;startSize=26;horizontalStack=0;resizeParent=1;resizeParentMax=0;resizeLast=0;collapsible=1;marginBottom=0;" parent="1" vertex="1">
                    <mxGeometry x="230" y="40" width="190" height="120" as="geometry"/>
                </mxCell>
                <mxCell id="VUS6i2FInuebqIqwBOHY-7" value="+ remote: Controller&#10;+ television: Device" style="text;strokeColor=none;fillColor=none;align=left;verticalAlign=top;spacingLeft=4;spacingRight=4;overflow=hidden;rotatable=0;points=[[0,0.5],[1,0.5]];portConstraint=eastwest;" parent="VUS6i2FInuebqIqwBOHY-6" vertex="1">
                    <mxGeometry y="26" width="190" height="44" as="geometry"/>
                </mxCell>
                <mxCell id="VUS6i2FInuebqIqwBOHY-8" value="" style="line;strokeWidth=1;fillColor=none;align=left;verticalAlign=middle;spacingTop=-1;spacingLeft=3;spacingRight=3;rotatable=0;labelPosition=right;points=[];portConstraint=eastwest;" parent="VUS6i2FInuebqIqwBOHY-6" vertex="1">
                    <mxGeometry y="70" width="190" height="8" as="geometry"/>
                </mxCell>
                <mxCell id="VUS6i2FInuebqIqwBOHY-9" value="+ plugPower(): void&#10;+ pressButton(Command): void&#10;" style="text;strokeColor=none;fillColor=none;align=left;verticalAlign=top;spacingLeft=4;spacingRight=4;overflow=hidden;rotatable=0;points=[[0,0.5],[1,0.5]];portConstraint=eastwest;" parent="VUS6i2FInuebqIqwBOHY-6" vertex="1">
                    <mxGeometry y="78" width="190" height="42" as="geometry"/>
                </mxCell>
                <mxCell id="VUS6i2FInuebqIqwBOHY-11" value="Device" style="swimlane;fontStyle=1;align=center;verticalAlign=top;childLayout=stackLayout;horizontal=1;startSize=26;horizontalStack=0;resizeParent=1;resizeParentMax=0;resizeLast=0;collapsible=1;marginBottom=0;" parent="1" vertex="1">
                    <mxGeometry x="370" y="750" width="270" height="230" as="geometry"/>
                </mxCell>
                <mxCell id="VUS6i2FInuebqIqwBOHY-12" value="+ status: int&#10;+ volumeLevel: int&#10;+ currentChannel: int&#10;+ favourites: List" style="text;strokeColor=none;fillColor=none;align=left;verticalAlign=top;spacingLeft=4;spacingRight=4;overflow=hidden;rotatable=0;points=[[0,0.5],[1,0.5]];portConstraint=eastwest;" parent="VUS6i2FInuebqIqwBOHY-11" vertex="1">
                    <mxGeometry y="26" width="270" height="64" as="geometry"/>
                </mxCell>
                <mxCell id="VUS6i2FInuebqIqwBOHY-13" value="" style="line;strokeWidth=1;fillColor=none;align=left;verticalAlign=middle;spacingTop=-1;spacingLeft=3;spacingRight=3;rotatable=0;labelPosition=right;points=[];portConstraint=eastwest;" parent="VUS6i2FInuebqIqwBOHY-11" vertex="1">
                    <mxGeometry y="90" width="270" height="8" as="geometry"/>
                </mxCell>
                <mxCell id="VUS6i2FInuebqIqwBOHY-14" value="+ powerOn(): void&#10;+ powerOff(): void&#10;+ incVolume(): void&#10;+ decVolume(): void&#10;+ incChannel(): void&#10;+ decChannel(): void&#10;+ addFavorite(): void&#10;+ savePlayList(): void" style="text;strokeColor=none;fillColor=none;align=left;verticalAlign=top;spacingLeft=4;spacingRight=4;overflow=hidden;rotatable=0;points=[[0,0.5],[1,0.5]];portConstraint=eastwest;" parent="VUS6i2FInuebqIqwBOHY-11" vertex="1">
                    <mxGeometry y="98" width="270" height="132" as="geometry"/>
                </mxCell>
                <mxCell id="VUS6i2FInuebqIqwBOHY-15" value="Controller" style="swimlane;fontStyle=1;align=center;verticalAlign=top;childLayout=stackLayout;horizontal=1;startSize=26;horizontalStack=0;resizeParent=1;resizeParentMax=0;resizeLast=0;collapsible=1;marginBottom=0;" parent="1" vertex="1">
                    <mxGeometry x="470" y="40" width="170" height="120" as="geometry"/>
                </mxCell>
                <mxCell id="VUS6i2FInuebqIqwBOHY-16" value="+ command: ICommand" style="text;strokeColor=none;fillColor=none;align=left;verticalAlign=top;spacingLeft=4;spacingRight=4;overflow=hidden;rotatable=0;points=[[0,0.5],[1,0.5]];portConstraint=eastwest;" parent="VUS6i2FInuebqIqwBOHY-15" vertex="1">
                    <mxGeometry y="26" width="170" height="44" as="geometry"/>
                </mxCell>
                <mxCell id="VUS6i2FInuebqIqwBOHY-17" value="" style="line;strokeWidth=1;fillColor=none;align=left;verticalAlign=middle;spacingTop=-1;spacingLeft=3;spacingRight=3;rotatable=0;labelPosition=right;points=[];portConstraint=eastwest;" parent="VUS6i2FInuebqIqwBOHY-15" vertex="1">
                    <mxGeometry y="70" width="170" height="8" as="geometry"/>
                </mxCell>
                <mxCell id="VUS6i2FInuebqIqwBOHY-18" value="+ send(Command): void" style="text;strokeColor=none;fillColor=none;align=left;verticalAlign=top;spacingLeft=4;spacingRight=4;overflow=hidden;rotatable=0;points=[[0,0.5],[1,0.5]];portConstraint=eastwest;" parent="VUS6i2FInuebqIqwBOHY-15" vertex="1">
                    <mxGeometry y="78" width="170" height="42" as="geometry"/>
                </mxCell>
                <mxCell id="VUS6i2FInuebqIqwBOHY-23" value="&lt;p style=&quot;margin: 0px ; margin-top: 4px ; text-align: center&quot;&gt;&amp;lt;&amp;lt;enumeration&amp;gt;&amp;gt;&lt;br&gt;&lt;b&gt;Command&lt;/b&gt;&lt;/p&gt;&lt;hr&gt;&lt;p style=&quot;margin: 0px ; margin-left: 8px ; text-align: left&quot;&gt;ON&lt;/p&gt;&lt;p style=&quot;margin: 0px ; margin-left: 8px ; text-align: left&quot;&gt;INCREASE_VOLUME&lt;/p&gt;&lt;p style=&quot;margin: 0px ; margin-left: 8px ; text-align: left&quot;&gt;DECREASE_VOLUME&lt;/p&gt;&lt;p style=&quot;margin: 0px ; margin-left: 8px ; text-align: left&quot;&gt;INCREMENT_CHANNEL&lt;/p&gt;&lt;p style=&quot;margin: 0px ; margin-left: 8px ; text-align: left&quot;&gt;DECREMENT_CHANNEL&lt;/p&gt;&lt;p style=&quot;margin: 0px ; margin-left: 8px ; text-align: left&quot;&gt;ADD_FAVOURITE&lt;/p&gt;&lt;p style=&quot;margin: 0px ; margin-left: 8px ; text-align: left&quot;&gt;SAVE_PLAYLIST&lt;br&gt;OFF&lt;/p&gt;" style="shape=rect;html=1;overflow=fill;whiteSpace=wrap;" parent="1" vertex="1">
                    <mxGeometry x="230" y="200" width="180" height="160" as="geometry"/>
                </mxCell>
                <mxCell id="VUS6i2FInuebqIqwBOHY-28" value="CommandFactory" style="swimlane;fontStyle=1;align=center;verticalAlign=top;childLayout=stackLayout;horizontal=1;startSize=26;horizontalStack=0;resizeParent=1;resizeParentMax=0;resizeLast=0;collapsible=1;marginBottom=0;" parent="1" vertex="1">
                    <mxGeometry x="470" y="200" width="190" height="76" as="geometry"/>
                </mxCell>
                <mxCell id="VUS6i2FInuebqIqwBOHY-30" value="" style="line;strokeWidth=1;fillColor=none;align=left;verticalAlign=middle;spacingTop=-1;spacingLeft=3;spacingRight=3;rotatable=0;labelPosition=right;points=[];portConstraint=eastwest;" parent="VUS6i2FInuebqIqwBOHY-28" vertex="1">
                    <mxGeometry y="26" width="190" height="8" as="geometry"/>
                </mxCell>
                <mxCell id="VUS6i2FInuebqIqwBOHY-31" value="+ getImpl(Command): ICommand" style="text;strokeColor=none;fillColor=none;align=left;verticalAlign=top;spacingLeft=4;spacingRight=4;overflow=hidden;rotatable=0;points=[[0,0.5],[1,0.5]];portConstraint=eastwest;" parent="VUS6i2FInuebqIqwBOHY-28" vertex="1">
                    <mxGeometry y="34" width="190" height="42" as="geometry"/>
                </mxCell>
                <mxCell id="VUS6i2FInuebqIqwBOHY-32" value="&lt;p style=&quot;margin: 0px ; margin-top: 4px ; text-align: center&quot;&gt;&amp;lt;&amp;lt;interface&amp;gt;&amp;gt;&lt;br&gt;&lt;b&gt;ICommand&lt;/b&gt;&lt;/p&gt;&lt;hr&gt;&lt;p style=&quot;margin: 0px ; margin-left: 8px ; text-align: left&quot;&gt;- television: Device&lt;/p&gt;&lt;p style=&quot;margin: 0px ; margin-left: 8px ; text-align: left&quot;&gt;&lt;br&gt;&lt;/p&gt;&lt;p style=&quot;margin: 0px ; margin-left: 8px ; text-align: left&quot;&gt;+ execute(Command): void&lt;/p&gt;" style="shape=rect;html=1;overflow=fill;whiteSpace=wrap;" parent="1" vertex="1">
                    <mxGeometry x="360" y="380" width="200" height="100" as="geometry"/>
                </mxCell>
                <mxCell id="VUS6i2FInuebqIqwBOHY-33" value="PowerImpl" style="swimlane;fontStyle=1;align=center;verticalAlign=top;childLayout=stackLayout;horizontal=1;startSize=26;horizontalStack=0;resizeParent=1;resizeParentMax=0;resizeLast=0;collapsible=1;marginBottom=0;" parent="1" vertex="1">
                    <mxGeometry x="240" y="520" width="210" height="76" as="geometry"/>
                </mxCell>
                <mxCell id="VUS6i2FInuebqIqwBOHY-35" value="" style="line;strokeWidth=1;fillColor=none;align=left;verticalAlign=middle;spacingTop=-1;spacingLeft=3;spacingRight=3;rotatable=0;labelPosition=right;points=[];portConstraint=eastwest;" parent="VUS6i2FInuebqIqwBOHY-33" vertex="1">
                    <mxGeometry y="26" width="210" height="8" as="geometry"/>
                </mxCell>
                <mxCell id="VUS6i2FInuebqIqwBOHY-36" value="+ execute(Command): void&#10;" style="text;strokeColor=none;fillColor=none;align=left;verticalAlign=top;spacingLeft=4;spacingRight=4;overflow=hidden;rotatable=0;points=[[0,0.5],[1,0.5]];portConstraint=eastwest;" parent="VUS6i2FInuebqIqwBOHY-33" vertex="1">
                    <mxGeometry y="34" width="210" height="42" as="geometry"/>
                </mxCell>
                <mxCell id="VUS6i2FInuebqIqwBOHY-37" value="VolumeImpl" style="swimlane;fontStyle=1;align=center;verticalAlign=top;childLayout=stackLayout;horizontal=1;startSize=26;horizontalStack=0;resizeParent=1;resizeParentMax=0;resizeLast=0;collapsible=1;marginBottom=0;" parent="1" vertex="1">
                    <mxGeometry x="530" y="520" width="190" height="76" as="geometry"/>
                </mxCell>
                <mxCell id="VUS6i2FInuebqIqwBOHY-39" value="" style="line;strokeWidth=1;fillColor=none;align=left;verticalAlign=middle;spacingTop=-1;spacingLeft=3;spacingRight=3;rotatable=0;labelPosition=right;points=[];portConstraint=eastwest;" parent="VUS6i2FInuebqIqwBOHY-37" vertex="1">
                    <mxGeometry y="26" width="190" height="8" as="geometry"/>
                </mxCell>
                <mxCell id="VUS6i2FInuebqIqwBOHY-40" value="+ execute(Command): void" style="text;strokeColor=none;fillColor=none;align=left;verticalAlign=top;spacingLeft=4;spacingRight=4;overflow=hidden;rotatable=0;points=[[0,0.5],[1,0.5]];portConstraint=eastwest;" parent="VUS6i2FInuebqIqwBOHY-37" vertex="1">
                    <mxGeometry y="34" width="190" height="42" as="geometry"/>
                </mxCell>
                <mxCell id="VUS6i2FInuebqIqwBOHY-45" value="PlayListImpl" style="swimlane;fontStyle=1;align=center;verticalAlign=top;childLayout=stackLayout;horizontal=1;startSize=26;horizontalStack=0;resizeParent=1;resizeParentMax=0;resizeLast=0;collapsible=1;marginBottom=0;" parent="1" vertex="1">
                    <mxGeometry x="530" y="620" width="190" height="76" as="geometry"/>
                </mxCell>
                <mxCell id="VUS6i2FInuebqIqwBOHY-47" value="" style="line;strokeWidth=1;fillColor=none;align=left;verticalAlign=middle;spacingTop=-1;spacingLeft=3;spacingRight=3;rotatable=0;labelPosition=right;points=[];portConstraint=eastwest;" parent="VUS6i2FInuebqIqwBOHY-45" vertex="1">
                    <mxGeometry y="26" width="190" height="8" as="geometry"/>
                </mxCell>
                <mxCell id="VUS6i2FInuebqIqwBOHY-48" value="+ execute(Command): void" style="text;strokeColor=none;fillColor=none;align=left;verticalAlign=top;spacingLeft=4;spacingRight=4;overflow=hidden;rotatable=0;points=[[0,0.5],[1,0.5]];portConstraint=eastwest;" parent="VUS6i2FInuebqIqwBOHY-45" vertex="1">
                    <mxGeometry y="34" width="190" height="42" as="geometry"/>
                </mxCell>
                <mxCell id="VUS6i2FInuebqIqwBOHY-49" value="ChannelImpl" style="swimlane;fontStyle=1;align=center;verticalAlign=top;childLayout=stackLayout;horizontal=1;startSize=26;horizontalStack=0;resizeParent=1;resizeParentMax=0;resizeLast=0;collapsible=1;marginBottom=0;" parent="1" vertex="1">
                    <mxGeometry x="240" y="620" width="210" height="76" as="geometry"/>
                </mxCell>
                <mxCell id="VUS6i2FInuebqIqwBOHY-51" value="" style="line;strokeWidth=1;fillColor=none;align=left;verticalAlign=middle;spacingTop=-1;spacingLeft=3;spacingRight=3;rotatable=0;labelPosition=right;points=[];portConstraint=eastwest;" parent="VUS6i2FInuebqIqwBOHY-49" vertex="1">
                    <mxGeometry y="26" width="210" height="8" as="geometry"/>
                </mxCell>
                <mxCell id="VUS6i2FInuebqIqwBOHY-52" value="+ execute(Command): void" style="text;strokeColor=none;fillColor=none;align=left;verticalAlign=top;spacingLeft=4;spacingRight=4;overflow=hidden;rotatable=0;points=[[0,0.5],[1,0.5]];portConstraint=eastwest;" parent="VUS6i2FInuebqIqwBOHY-49" vertex="1">
                    <mxGeometry y="34" width="210" height="42" as="geometry"/>
                </mxCell>
            </root>
        </mxGraphModel>
    </diagram>
</mxfile>